<svg width="90" height="90" viewBox="0 0 90 90" fill="none" xmlns="http://www.w3.org/2000/svg">
<path d="M33.75 75.9366H16.875C16.1291 75.9366 15.4137 75.6403 14.8863 75.1128C14.3588 74.5854 14.0625 73.87 14.0625 73.1241V57.4141C14.0625 57.0447 14.1352 56.679 14.2766 56.3378C14.4179 55.9965 14.6251 55.6865 14.8863 55.4253L57.0738 13.2378C57.6012 12.7104 58.3166 12.4141 59.0625 12.4141C59.8084 12.4141 60.5238 12.7104 61.0512 13.2378L76.7613 28.9478C77.2887 29.4753 77.585 30.1907 77.585 30.9366C77.585 31.6825 77.2887 32.3979 76.7613 32.9253L33.75 75.9366Z" stroke="#1A2C52" stroke-width="3" stroke-linecap="round" stroke-linejoin="round"/>
<path d="M47.8125 22.5L67.5 42.1875" stroke="#1A2C52" stroke-width="3" stroke-linecap="round" stroke-linejoin="round"/>
<path d="M15.4688 54.8438L36.5625 75.9375" stroke="#1A2C52" stroke-width="3" stroke-linecap="round" stroke-linejoin="round"/>
<path d="M75.9375 75.9375H33.75" stroke="#1A2C52" stroke-width="3" stroke-linecap="round" stroke-linejoin="round"/>
</svg>
