<svg width="156" height="44" viewBox="0 0 156 44" fill="none" xmlns="http://www.w3.org/2000/svg">
<path d="M71.8459 10.5922V28H68.3544V10.5922H71.8459ZM82.952 13.984C84.598 13.984 85.9281 14.5077 86.9423 15.5552C87.9565 16.586 88.4636 18.0325 88.4636 19.8947V28H84.9721V20.3685C84.9721 19.2712 84.6977 18.4315 84.1491 17.8496C83.6004 17.2511 82.8522 16.9518 81.9045 16.9518C80.9402 16.9518 80.1754 17.2511 79.6101 17.8496C79.0614 18.4315 78.7871 19.2712 78.7871 20.3685V28H75.2955V14.1835H78.7871V15.9043C79.2526 15.3058 79.8428 14.8403 80.5578 14.5077C81.2893 14.1586 82.0874 13.984 82.952 13.984ZM90.886 21.0668C90.886 19.6868 91.1687 18.4648 91.734 17.4007C92.3159 16.32 93.0973 15.4804 94.0783 14.8818C95.0593 14.2833 96.14 13.984 97.3204 13.984C98.3014 13.984 99.166 14.1752 99.9141 14.5576C100.679 14.9234 101.294 15.3972 101.76 15.9792V14.1835H105.276V34.584H101.76V26.1046C101.294 26.7031 100.671 27.2019 99.8892 27.601C99.1078 28 98.2266 28.1995 97.2456 28.1995C96.0818 28.1995 95.0094 27.9002 94.0284 27.3017C93.0641 26.6865 92.2993 25.8386 91.734 24.7579C91.1687 23.6772 90.886 22.4468 90.886 21.0668ZM101.76 21.0918C101.76 20.2438 101.585 19.5123 101.236 18.8971C100.887 18.2819 100.43 17.8164 99.8643 17.5005C99.3156 17.1846 98.7254 17.0266 98.0936 17.0266C97.4784 17.0266 96.8881 17.1846 96.3229 17.5005C95.7742 17.8164 95.3253 18.2819 94.9761 18.8971C94.627 19.4956 94.4524 20.2189 94.4524 21.0668C94.4524 21.9148 94.627 22.6546 94.9761 23.2864C95.3253 23.9016 95.7742 24.3671 96.3229 24.683C96.8881 24.9989 97.4784 25.1569 98.0936 25.1569C98.7254 25.1569 99.3156 24.9989 99.8643 24.683C100.43 24.3671 100.887 23.9016 101.236 23.2864C101.585 22.6713 101.76 21.9397 101.76 21.0918ZM121.73 14.1835V28H118.213V26.2542C117.764 26.8528 117.174 27.3266 116.442 27.6758C115.727 28.0083 114.946 28.1746 114.098 28.1746C113.017 28.1746 112.061 27.9501 111.23 27.5012C110.399 27.0357 109.742 26.3623 109.26 25.4811C108.794 24.5833 108.562 23.5192 108.562 22.2889V14.1835H112.053V21.7901C112.053 22.8874 112.327 23.7353 112.876 24.3339C113.425 24.9158 114.173 25.2068 115.121 25.2068C116.085 25.2068 116.841 24.9158 117.39 24.3339C117.939 23.7353 118.213 22.8874 118.213 21.7901V14.1835H121.73ZM126.945 12.5375C126.33 12.5375 125.815 12.3463 125.399 11.9639C125 11.5649 124.8 11.0744 124.8 10.4925C124.8 9.91055 125 9.42838 125.399 9.04598C125.815 8.64694 126.33 8.44743 126.945 8.44743C127.56 8.44743 128.068 8.64694 128.467 9.04598C128.882 9.42838 129.09 9.91055 129.09 10.4925C129.09 11.0744 128.882 11.5649 128.467 11.9639C128.068 12.3463 127.56 12.5375 126.945 12.5375ZM128.666 14.1835V28H125.175V14.1835H128.666ZM135.607 16.3283C136.056 15.5968 136.638 15.0231 137.353 14.6075C138.085 14.1918 138.916 13.984 139.847 13.984V17.6501H138.924C137.827 17.6501 136.996 17.9078 136.43 18.4232C135.882 18.9386 135.607 19.8365 135.607 21.1167V28H132.116V14.1835H135.607V16.3283ZM155.043 20.7925C155.043 21.2913 155.009 21.7402 154.943 22.1392H144.842C144.925 23.1368 145.275 23.9182 145.89 24.4835C146.505 25.0488 147.261 25.3315 148.159 25.3315C149.456 25.3315 150.379 24.7745 150.928 23.6605H154.693C154.294 24.9906 153.53 26.088 152.399 26.9525C151.268 27.8005 149.88 28.2245 148.234 28.2245C146.904 28.2245 145.707 27.9335 144.643 27.3516C143.595 26.753 142.772 25.9134 142.174 24.8327C141.592 23.752 141.301 22.505 141.301 21.0918C141.301 19.6619 141.592 18.4066 142.174 17.3259C142.756 16.2452 143.57 15.4139 144.618 14.8319C145.665 14.25 146.871 13.9591 148.234 13.9591C149.548 13.9591 150.72 14.2417 151.751 14.807C152.798 15.3723 153.604 16.1787 154.17 17.2261C154.752 18.257 155.043 19.4458 155.043 20.7925ZM151.426 19.7949C151.41 18.8971 151.085 18.1821 150.454 17.6501C149.822 17.1014 149.049 16.8271 148.134 16.8271C147.27 16.8271 146.538 17.0931 145.94 17.6252C145.358 18.1406 145 18.8638 144.867 19.7949H151.426Z" fill="#162B55"/>
<g filter="url(#filter0_d)">
<path fill-rule="evenodd" clip-rule="evenodd" d="M2.53355 4.74805C1.68659 4.74805 1 5.43464 1 6.2816V35.419C1 36.266 1.68659 36.9526 2.53355 36.9526H37.109L43.5908 42.3006C44.341 42.9195 45.473 42.3859 45.473 41.4134V29.6133C45.473 29.6115 45.473 29.6098 45.473 29.608V6.2816C45.473 5.43464 44.7864 4.74805 43.9394 4.74805H2.53355Z" fill="#B0CCFF"/>
</g>
<path fill-rule="evenodd" clip-rule="evenodd" d="M5.53355 2C4.68659 2 4 2.68659 4 3.53355V32.671C4 33.518 4.68659 34.2046 5.53355 34.2046H40.109L46.5908 39.5526C47.341 40.1715 48.473 39.6379 48.473 38.6654L48.473 32.671L48.473 26.8652C48.473 26.8642 48.473 26.8632 48.473 26.8622V3.53355C48.473 2.68659 47.7864 2 46.9394 2H5.53355Z" fill="#4A86FA"/>
<g filter="url(#filter1_d)">
<path d="M26.584 8.99368C28.3132 8.99368 29.7015 9.46753 30.7489 10.4152C31.813 11.3463 32.3451 12.6348 32.3451 14.2809C32.3451 15.9102 31.8213 17.1572 30.7739 18.0218C29.7264 18.8697 28.3381 19.2937 26.609 19.2937L26.5092 21.214H23.4417L23.317 16.9743H24.4392C25.8857 16.9743 26.9997 16.7831 27.7811 16.4007C28.5626 16.0183 28.9533 15.32 28.9533 14.3058C28.9533 13.5742 28.7371 12.9923 28.3049 12.56C27.8892 12.1277 27.3156 11.9116 26.584 11.9116C25.8192 11.9116 25.2207 12.1194 24.7884 12.5351C24.3727 12.9507 24.1649 13.5244 24.1649 14.2559H20.8729C20.8563 13.2417 21.0724 12.3356 21.5213 11.5375C21.9702 10.7394 22.627 10.116 23.4915 9.66704C24.3727 9.21813 25.4036 8.99368 26.584 8.99368ZM24.963 27.1746C24.3312 27.1746 23.8074 26.9834 23.3918 26.601C22.9927 26.2019 22.7932 25.7115 22.7932 25.1295C22.7932 24.5476 22.9927 24.0655 23.3918 23.683C23.8074 23.284 24.3312 23.0845 24.963 23.0845C25.5781 23.0845 26.0852 23.284 26.4843 23.683C26.8833 24.0655 27.0828 24.5476 27.0828 25.1295C27.0828 25.7115 26.8833 26.2019 26.4843 26.601C26.0852 26.9834 25.5781 27.1746 24.963 27.1746Z" fill="white"/>
</g>
<defs>
<filter id="filter0_d" x="0.233225" y="3.98127" width="46.0065" height="39.3513" filterUnits="userSpaceOnUse" color-interpolation-filters="sRGB">
<feFlood flood-opacity="0" result="BackgroundImageFix"/>
<feColorMatrix in="SourceAlpha" type="matrix" values="0 0 0 0 0 0 0 0 0 0 0 0 0 0 0 0 0 0 127 0"/>
<feOffset/>
<feGaussianBlur stdDeviation="0.383388"/>
<feColorMatrix type="matrix" values="0 0 0 0 0 0 0 0 0 0 0 0 0 0 0 0 0 0 0.25 0"/>
<feBlend mode="normal" in2="BackgroundImageFix" result="effect1_dropShadow"/>
<feBlend mode="normal" in="SourceGraphic" in2="effect1_dropShadow" result="shape"/>
</filter>
<filter id="filter1_d" x="19.8329" y="7.95451" width="13.5514" height="20.2592" filterUnits="userSpaceOnUse" color-interpolation-filters="sRGB">
<feFlood flood-opacity="0" result="BackgroundImageFix"/>
<feColorMatrix in="SourceAlpha" type="matrix" values="0 0 0 0 0 0 0 0 0 0 0 0 0 0 0 0 0 0 127 0"/>
<feOffset/>
<feGaussianBlur stdDeviation="0.519573"/>
<feColorMatrix type="matrix" values="0 0 0 0 0 0 0 0 0 0 0 0 0 0 0 0 0 0 0.16 0"/>
<feBlend mode="normal" in2="BackgroundImageFix" result="effect1_dropShadow"/>
<feBlend mode="normal" in="SourceGraphic" in2="effect1_dropShadow" result="shape"/>
</filter>
</defs>
</svg>
