<svg width="99" height="96" viewBox="0 0 99 96" fill="none" xmlns="http://www.w3.org/2000/svg">
<path d="M45 56.25C57.4264 56.25 67.5 46.1764 67.5 33.75C67.5 21.3236 57.4264 11.25 45 11.25C32.5736 11.25 22.5 21.3236 22.5 33.75C22.5 46.1764 32.5736 56.25 45 56.25Z" stroke="#1A2C52" stroke-width="3" stroke-linecap="round" stroke-linejoin="round"/>
<path d="M10.8945 75.9342C14.3524 69.9491 19.3243 64.9793 25.311 61.5241C31.2977 58.0689 38.0882 56.2499 45.0004 56.25C51.9126 56.2501 58.703 58.0691 64.6896 61.5245C70.6762 64.9798 75.6481 69.9497 79.1058 75.9349" stroke="#1A2C52" stroke-width="3" stroke-linecap="round" stroke-linejoin="round"/>
<circle cx="79" cy="71" r="20" fill="white"/>
<path d="M79 82.875C82.797 82.875 85.875 79.797 85.875 76C85.875 72.203 82.797 69.125 79 69.125C75.203 69.125 72.125 72.203 72.125 76C72.125 79.797 75.203 82.875 79 82.875Z" stroke="#1A2C52" stroke-width="3" stroke-linecap="round" stroke-linejoin="round"/>
<path d="M67.1706 70.308C67.4558 69.7164 67.7851 69.1471 68.1557 68.6048V68.6048L68.0874 64.5498C68.0843 64.3637 68.1227 64.1792 68.1998 64.0097C68.2768 63.8402 68.3907 63.6901 68.533 63.5701C69.9966 62.3353 71.6672 61.3692 73.4674 60.7165C73.6421 60.6536 73.8286 60.6304 74.0133 60.6486C74.198 60.6667 74.3764 60.7258 74.5355 60.8215L78.0187 62.9115L78.0151 62.9093C78.6701 62.8606 79.3278 62.8611 79.9826 62.9109V62.9109L83.4602 60.8243C83.6199 60.7285 83.7989 60.6695 83.9842 60.6515C84.1695 60.6335 84.3565 60.657 84.5316 60.7203C86.3327 61.3705 88.0046 62.3342 89.47 63.5669C89.6118 63.6867 89.7251 63.8366 89.8018 64.0056C89.8784 64.1747 89.9165 64.3587 89.9131 64.5443L89.8448 68.6059L89.8448 68.6017C90.2145 69.1445 90.5429 69.7143 90.8272 70.3064V70.3064L94.3731 72.2747C94.5358 72.3651 94.6764 72.4906 94.7847 72.6421C94.8929 72.7936 94.966 72.9673 94.9988 73.1506C95.336 75.0337 95.3377 76.9615 95.0038 78.8452C94.9712 79.0289 94.8981 79.203 94.7898 79.3549C94.6815 79.5068 94.5407 79.6326 94.3776 79.7233L90.8263 81.6947L90.83 81.6927C90.5447 82.2843 90.2154 82.8536 89.8449 83.3958V83.3958L89.9131 87.4508C89.9162 87.637 89.8778 87.8215 89.8008 87.9909C89.7237 88.1604 89.6098 88.3106 89.4675 88.4306C88.0039 89.6654 86.3333 90.6314 84.5331 91.2841C84.3584 91.347 84.172 91.3702 83.9872 91.3521C83.8025 91.3339 83.6241 91.2749 83.465 91.1792L79.9818 89.0892L79.9854 89.0913C79.3305 89.1401 78.6728 89.1396 78.0179 89.0898V89.0898L74.5403 91.1764C74.3806 91.2721 74.2017 91.3312 74.0163 91.3491C73.831 91.3671 73.6441 91.3436 73.469 91.2803C71.6678 90.6302 69.9959 89.6665 68.5305 88.4338C68.3887 88.314 68.2754 88.1641 68.1987 87.995C68.1221 87.826 68.0841 87.642 68.0874 87.4564L68.1558 83.3948L68.1557 83.399C67.786 82.8562 67.4576 82.2863 67.1733 81.6943H67.1733L63.6274 79.7259C63.4647 79.6355 63.3241 79.51 63.2158 79.3585C63.1076 79.207 63.0345 79.0334 63.0017 78.8501C62.6645 76.967 62.6628 75.0391 62.9967 73.1554C63.0293 72.9717 63.1024 72.7976 63.2107 72.6457C63.319 72.4938 63.4598 72.368 63.6229 72.2774L67.1742 70.3059L67.1706 70.308Z" stroke="#1A2C52" stroke-width="3" stroke-linecap="round" stroke-linejoin="round"/>
</svg>
