<svg width="90" height="90" viewBox="0 0 90 90" fill="none" xmlns="http://www.w3.org/2000/svg">
<path d="M83.221 42.8143L74.5312 47.1592L63.2812 25.6148L72.0595 21.2256C72.719 20.8959 73.4817 20.8383 74.1832 21.0653C74.8847 21.2923 75.4691 21.7858 75.8104 22.4394L84.4563 38.9969C84.6292 39.328 84.7344 39.6902 84.7658 40.0624C84.7972 40.4346 84.7541 40.8093 84.6391 41.1647C84.5242 41.52 84.3395 41.8489 84.0961 42.1321C83.8526 42.4154 83.5551 42.6473 83.221 42.8143V42.8143Z" stroke="#1A2C52" stroke-width="3" stroke-linecap="round" stroke-linejoin="round"/>
<path d="M15.4686 46.7833L6.77883 42.4384C6.44476 42.2713 6.14731 42.0394 5.90383 41.7562C5.66035 41.473 5.47573 41.1441 5.36073 40.7887C5.24574 40.4333 5.20268 40.0586 5.23407 39.6864C5.26546 39.3143 5.37066 38.9521 5.54355 38.621L14.1895 22.0634C14.5308 21.4098 15.1151 20.9164 15.8167 20.6894C16.5182 20.4623 17.2808 20.5199 17.9404 20.8497L26.7186 25.2388L15.4686 46.7833Z" stroke="#1A2C52" stroke-width="3" stroke-linecap="round" stroke-linejoin="round"/>
<path d="M74.5312 47.159L70.3125 53.7396L57.376 66.6761C57.0326 67.0195 56.6061 67.2681 56.138 67.3978C55.67 67.5274 55.1763 67.5336 54.7051 67.4159L34.3297 62.322C33.9475 62.2264 33.5896 62.0517 33.2793 61.809L15.4688 46.7822" stroke="#1A2C52" stroke-width="3" stroke-linecap="round" stroke-linejoin="round"/>
<path d="M70.3125 53.7402L54.8437 42.4902L50.3437 45.8652C48.3964 47.3257 46.0279 48.1152 43.5937 48.1152C41.1596 48.1152 38.7911 47.3257 36.8437 45.8652L34.938 44.4359C34.6156 44.1942 34.349 43.8859 34.1561 43.5322C33.9632 43.1784 33.8486 42.7873 33.8201 42.3853C33.7915 41.9834 33.8496 41.58 33.9905 41.2025C34.1314 40.825 34.3518 40.4821 34.6368 40.1972L48.395 26.439C48.6561 26.1778 48.9662 25.9707 49.3074 25.8293C49.6486 25.688 50.0143 25.6152 50.3837 25.6152H63.2812" stroke="#1A2C52" stroke-width="3" stroke-linecap="round" stroke-linejoin="round"/>
<path d="M26.9204 25.2385L43.5563 19.9786C44.2009 19.7907 44.8913 19.8396 45.5029 20.1163L57.656 25.6153" stroke="#1A2C52" stroke-width="3" stroke-linecap="round" stroke-linejoin="round"/>
<path d="M37.9688 77.6466L27.3729 74.9977C26.9429 74.8902 26.5444 74.6826 26.2099 74.3918L18.2812 67.5" stroke="#1A2C52" stroke-width="3" stroke-linecap="round" stroke-linejoin="round"/>
</svg>
