<svg width="90" height="90" viewBox="0 0 90 90" fill="none" xmlns="http://www.w3.org/2000/svg">
<path d="M73.1235 30.9375H16.8735C15.3202 30.9375 14.061 32.1967 14.061 33.75V73.125C14.061 74.6783 15.3202 75.9375 16.8735 75.9375H73.1235C74.6768 75.9375 75.936 74.6783 75.936 73.125V33.75C75.936 32.1967 74.6768 30.9375 73.1235 30.9375Z" stroke="#192C52" stroke-width="3" stroke-linecap="round" stroke-linejoin="round"/>
<path d="M32.3423 30.9375V18.2812C32.3423 14.9246 33.6757 11.7054 36.0492 9.33193C38.4227 6.95842 41.6419 5.625 44.9985 5.625C48.3552 5.625 51.5743 6.95842 53.9479 9.33193C56.3214 11.7054 57.6548 14.9246 57.6548 18.2812V30.9375" stroke="#192C52" stroke-width="3" stroke-linecap="round" stroke-linejoin="round"/>
<path d="M44.9985 57.6562C48.8818 57.6562 52.0298 54.5083 52.0298 50.625C52.0298 46.7417 48.8818 43.5938 44.9985 43.5938C41.1153 43.5938 37.9673 46.7417 37.9673 50.625C37.9673 54.5083 41.1153 57.6562 44.9985 57.6562Z" stroke="#192C52" stroke-width="3" stroke-linecap="round" stroke-linejoin="round"/>
<path d="M44.9985 57.6562V63.2812" stroke="#192C52" stroke-width="3" stroke-linecap="round" stroke-linejoin="round"/>
</svg>
